<svg xmlns="http://www.w3.org/2000/svg" width="720" height="400" viewBox="0 0 720 400" font-family="Segoe UI, Arial, sans-serif">
<rect width="720" height="400" fill="white"/>
<text x="360.0" y="24" text-anchor="middle" font-size="16" fill="#222">Throughput scaling: lock-free vs mutex</text>
<line x1="70" y1="40" x2="70" y2="345" stroke="#444"/>
<line x1="70" y1="345" x2="690" y2="345" stroke="#444"/>
<text x="380.0" y="388" text-anchor="middle" font-size="12" fill="#222">producer/consumer pairs</text>
<text x="18" y="192.5" text-anchor="middle" font-size="12" fill="#222" transform="rotate(-90 18 192.5)">throughput (M msgs/s)</text>
<line x1="70" y1="345.0" x2="690" y2="345.0" stroke="#e6e6e6"/>
<text x="62" y="349.0" text-anchor="end" font-size="11" fill="#222">0</text>
<line x1="70" y1="284.0" x2="690" y2="284.0" stroke="#e6e6e6"/>
<text x="62" y="288.0" text-anchor="end" font-size="11" fill="#222">3</text>
<line x1="70" y1="223.0" x2="690" y2="223.0" stroke="#e6e6e6"/>
<text x="62" y="227.0" text-anchor="end" font-size="11" fill="#222">6</text>
<line x1="70" y1="162.0" x2="690" y2="162.0" stroke="#e6e6e6"/>
<text x="62" y="166.0" text-anchor="end" font-size="11" fill="#222">9</text>
<line x1="70" y1="100.99999999999999" x2="690" y2="100.99999999999999" stroke="#e6e6e6"/>
<text x="62" y="104.99999999999999" text-anchor="end" font-size="11" fill="#222">12</text>
<line x1="70" y1="40.0" x2="690" y2="40.0" stroke="#e6e6e6"/>
<text x="62" y="44.0" text-anchor="end" font-size="11" fill="#222">15</text>
<rect x="96.35" y="67.72727272727275" width="46.5" height="277.27272727272725" fill="#1f77b4"/>
<rect x="251.35000000000002" y="224.75323237846948" width="46.5" height="120.24676762153054" fill="#1f77b4"/>
<rect x="406.35" y="275.541415208337" width="46.5" height="69.458584791663" fill="#1f77b4"/>
<rect x="561.35" y="306.1570089591692" width="46.5" height="38.84299104083076" fill="#1f77b4"/>
<rect x="152.15" y="324.7941375756715" width="46.5" height="20.20586242432849" fill="#d62728"/>
<rect x="307.15" y="327.2450104208683" width="46.5" height="17.754989579131685" fill="#d62728"/>
<rect x="462.15" y="325.1640982449094" width="46.5" height="19.8359017550906" fill="#d62728"/>
<rect x="617.15" y="319.9844866654861" width="46.5" height="25.01551333451392" fill="#d62728"/>
<text x="147.5" y="363" text-anchor="middle" font-size="11" fill="#222">1x1</text>
<text x="302.5" y="363" text-anchor="middle" font-size="11" fill="#222">2x2</text>
<text x="457.5" y="363" text-anchor="middle" font-size="11" fill="#222">4x4</text>
<text x="612.5" y="363" text-anchor="middle" font-size="11" fill="#222">8x8</text>
<rect x="80" y="45" width="12" height="12" fill="#1f77b4"/>
<text x="98" y="55" font-size="12" fill="#222">lock-free MPMC</text>
<rect x="222" y="45" width="12" height="12" fill="#d62728"/>
<text x="240" y="55" font-size="12" fill="#222">mutex + queue</text>
</svg>